HIERARCHY
ROOT Hips
{
	OFFSET -3.958830 18.904000 13.208200
	CHANNELS 6 Xposition Yposition Zposition Zrotation Yrotation Xrotation 
	JOINT LHipJoint
	{
		OFFSET 0.000000 0.000000 0.000000
		CHANNELS 3 Zrotation Yrotation Xrotation
		JOINT LeftUpLeg
		{
			OFFSET 1.800000 -1.400000 0.085000
			CHANNELS 3 Zrotation Yrotation Xrotation
			JOINT LeftLeg
			{
				OFFSET 2.215000 -6.000000 0.000000
				CHANNELS 3 Zrotation Yrotation Xrotation
				JOINT LeftFoot
				{
					OFFSET 2.500000 -6.900000 0.000000
					CHANNELS 3 Zrotation Yrotation Xrotation
					JOINT LeftToeBase
					{
						OFFSET 0.200000 -0.500000 1.950000
						CHANNELS 3 Zrotation Yrotation Xrotation
						End Site
						{
							OFFSET 0.000000 0.000000 0.000000
						}
					}
				}
			}
		}
	}
	JOINT RHipJoint
	{
		OFFSET 0.000000 0.000000 0.000000
		CHANNELS 3 Zrotation Yrotation Xrotation
		JOINT RightUpLeg
		{
			OFFSET -1.800000 -1.400000 0.085000
			CHANNELS 3 Zrotation Yrotation Xrotation
			JOINT RightLeg
			{
				OFFSET -2.215000 -6.000000 0.000000
				CHANNELS 3 Zrotation Yrotation Xrotation
				JOINT RightFoot
				{
					OFFSET -2.500000 -6.900000 0.000000
					CHANNELS 3 Zrotation Yrotation Xrotation
					JOINT RightToeBase
					{
						OFFSET -0.200000 -0.500000 1.950000
						CHANNELS 3 Zrotation Yrotation Xrotation
						End Site
						{
							OFFSET 0.000000 0.000000 0.000000
						}
					}
				}
			}
		}
	}
	JOINT LowerBack
	{
		OFFSET 0.000000 0.000000 0.000000
		CHANNELS 3 Zrotation Yrotation Xrotation
		JOINT Spine
		{
			OFFSET -0.087000 1.940000 -0.288900
			CHANNELS 3 Zrotation Yrotation Xrotation
			JOINT Spine1
			{
				OFFSET 0.000000 1.950000 0.060000
				CHANNELS 3 Zrotation Yrotation Xrotation
				JOINT Neck
				{
					OFFSET 0.000000 0.000000 0.000000
					CHANNELS 3 Zrotation Yrotation Xrotation
					JOINT Neck1
					{
						OFFSET 0.000000 1.600000 0.340000
						CHANNELS 3 Zrotation Yrotation Xrotation
						JOINT Head
						{
							OFFSET 0.000000 1.667000 -0.240000
							CHANNELS 3 Zrotation Yrotation Xrotation
							End Site
							{
								OFFSET 0.000000 0.000000 0.000000
							}
						}
					}
				}
				JOINT LeftShoulder
				{
					OFFSET 0.000000 0.000000 0.000000
					CHANNELS 3 Zrotation Yrotation Xrotation
					JOINT LeftArm
					{
						OFFSET 2.700000 1.550000 -0.730000
						CHANNELS 3 Zrotation Yrotation Xrotation
						JOINT LeftForeArm
						{
							OFFSET 5.450000 0.000000 0.000000
							CHANNELS 3 Zrotation Yrotation Xrotation
							JOINT LeftHand
							{
								OFFSET 3.450000 0.000000 0.000000
								CHANNELS 3 Zrotation Yrotation Xrotation
								JOINT LeftHandIndex1
								{
									OFFSET 0.750000 0.000000 0.000000
									CHANNELS 3 Zrotation Yrotation Xrotation
									End Site
									{
										OFFSET 0.000000 0.000000 0.000000
									}
								}
							}
						}
					}
				}
				JOINT RightShoulder
				{
					OFFSET 0.000000 0.000000 0.000000
					CHANNELS 3 Zrotation Yrotation Xrotation
					JOINT RightArm
					{
						OFFSET -2.700000 1.550000 -0.730000
						CHANNELS 3 Zrotation Yrotation Xrotation
						JOINT RightForeArm
						{
							OFFSET -5.450000 0.000000 0.000000
							CHANNELS 3 Zrotation Yrotation Xrotation
							JOINT RightHand
							{
								OFFSET -3.450000 0.000000 0.000000
								CHANNELS 3 Zrotation Yrotation Xrotation
								JOINT RightHandIndex1
								{
									OFFSET -0.750000 0.000000 0.000000
									CHANNELS 3 Zrotation Yrotation Xrotation
									End Site
									{
										OFFSET 0.000000 0.000000 0.000000
									}
								}
							}
						}
					}
				}
			}
		}
	}
}
MOTION
Frames: 13
Frame Time: 0.016667
-1.343840 17.387980 -5.246150 -0.635649 -15.517801 2.192063 -16.373017 10.831386 6.995444 46.917140 5.779883 -33.190415 -22.364193 35.566168 54.030815 1.876050 14.379072 -0.305807 0.203360 0.182230 0.191730 17.959480 -8.465396 1.386896 -9.961492 4.859191 -29.129129 -6.463150 -4.127716 42.860427 -0.577791 -5.424841 2.217008 0.092410 0.124880 0.377150 -1.710761 -2.891865 -9.165499 -7.242335 0.654892 18.307588 3.003273 0.446545 -1.603911 5.176823 -0.274379 -7.411054 -0.429895 12.743680 30.531904 -5.920830 14.245930 -13.165950 -17.161435 3.666865 -0.347271 -43.217470 0.394075 -4.165877 -4.352945 -12.684417 -0.341242 -3.971274 2.907813 0.315700 0.127320 0.260060 0.104090 8.290383 -0.954034 4.427810 27.491268 -0.881866 -6.813551 -147.386129 60.286621 -138.803928 2.199610 -2.003517 -0.023700 0.066450 0.006540 -0.046800 
-1.300220 17.368810 -5.216820 -1.787604 -15.801124 2.626349 -16.318691 11.153521 6.583444 45.345697 5.449060 -31.149455 -21.359408 31.707868 49.069993 1.590308 13.564217 -0.120567 0.185030 0.158060 0.176000 17.941998 -8.586201 1.533523 -8.705730 5.226102 -28.748828 -6.233876 -3.859386 41.957269 -0.533495 -5.266155 2.282976 0.091600 0.155180 0.377880 -1.717009 -2.978281 -9.028557 -5.926853 0.166641 17.512641 4.157615 -0.031846 -1.577717 5.291965 -0.610132 -7.229725 -0.868557 13.221409 30.199064 -6.489310 14.262590 -12.263700 -17.039279 4.486474 -0.281140 -44.757336 1.717644 -4.718611 -5.007436 -13.353197 -0.346475 -3.997696 2.908173 0.290240 0.156070 0.228900 0.103820 8.006143 -1.344172 3.929527 26.500941 2.459942 -4.987188 -145.560035 53.008912 -128.644699 2.193662 -1.967714 -0.035690 0.071200 0.019910 -0.043950 
-1.259970 17.346610 -5.184080 -2.753331 -15.769720 2.957683 -16.243153 11.550520 6.114089 43.335783 4.757209 -28.958269 -19.656529 27.588637 44.149683 1.277601 12.618809 0.109736 0.168020 0.135060 0.146530 17.922373 -8.754100 1.675104 -8.059023 5.394449 -28.340274 -5.636311 -3.831486 41.010745 -0.485433 -5.124960 2.340033 0.091440 0.187260 0.371350 -1.735482 -3.119618 -8.874999 -4.588325 -0.290254 16.787411 5.241593 -0.490576 -1.731892 5.266981 -1.435866 -7.200338 -2.331892 13.297303 29.741591 -6.281050 13.444390 -11.312480 -16.581099 5.204098 -0.160757 -46.407041 2.912458 -5.295206 -6.276895 -13.762275 -0.366254 -4.011547 2.916152 0.268960 0.172790 0.193700 0.106810 7.647989 -1.286541 3.623167 23.899534 4.202583 -3.875556 -145.029439 45.457704 -118.305638 2.162335 -1.964920 -0.047460 0.079920 0.036820 -0.034400 
-1.220190 17.315550 -5.152460 -3.731290 -15.659971 3.387161 -16.145913 11.945509 5.651364 41.386874 3.978537 -26.716775 -17.877254 23.638168 39.016840 0.968169 11.583434 0.396480 0.160290 0.126330 0.104520 17.918606 -8.937931 1.806919 -7.601736 5.471010 -27.952835 -5.117985 -3.790477 39.973842 -0.429203 -4.991954 2.401577 0.105840 0.241490 0.364220 -1.809164 -3.257311 -8.712800 -2.636673 -0.903638 15.952722 5.936324 -1.091642 -1.847970 5.060668 -2.753546 -7.167758 -4.765625 13.133842 28.640533 -5.559920 12.023430 -10.013090 -16.329548 5.442750 0.135113 -47.294170 4.053112 -5.682799 -8.419733 -13.538859 -0.388236 -4.031358 2.944329 0.228840 0.201530 0.143460 0.126410 7.804137 -0.456865 3.168038 18.661281 5.518658 -3.244213 -145.469339 37.953996 -107.464058 2.107409 -2.012125 -0.058620 0.097520 0.048950 -0.011230 
-1.167260 17.280800 -5.116050 -4.926708 -15.295559 4.007594 -16.045963 12.296617 5.242921 39.730563 3.194254 -24.785598 -15.877030 20.264648 34.621924 0.732963 10.601027 0.705805 0.128630 0.090150 0.039850 17.920466 -9.118785 1.922999 -7.410630 5.454643 -27.530125 -4.103787 -3.975863 38.633939 -0.359864 -4.839883 2.481301 0.093520 0.306980 0.360040 -1.901140 -3.353571 -8.571818 -0.378276 -1.300482 15.098631 7.150686 -1.643230 -2.025893 4.731183 -4.232306 -7.495149 -7.516070 12.396651 27.547654 -5.040110 10.346000 -8.265840 -15.196436 5.298956 0.742797 -49.769976 4.909814 -6.282091 -10.767664 -13.306219 -0.434120 -4.050665 2.974129 0.182910 0.233470 0.089310 0.152050 7.302539 1.053816 2.998987 14.203833 6.680079 -3.481660 -144.523825 29.128063 -89.223920 2.052494 -2.084894 -0.066280 0.108860 0.064700 0.023150 
-1.109950 17.249680 -5.084780 -5.837081 -14.830207 4.525470 -15.927146 12.625536 4.871102 38.011237 2.393377 -23.028328 -13.991767 17.573286 31.206405 0.584766 9.722702 1.004687 0.102810 0.077110 -0.042290 17.934340 -9.323970 2.016905 -7.860602 5.337566 -27.133679 -2.986838 -4.183330 37.187024 -0.285193 -4.702592 2.557636 0.090030 0.379740 0.350700 -2.040987 -3.411543 -8.443032 1.908212 -1.312649 14.768861 7.267691 -1.836827 -2.721790 4.393561 -5.466620 -7.734794 -9.830414 11.359060 26.270488 -3.310930 8.806870 -5.981180 -15.063861 4.554581 1.405905 -48.148744 6.187254 -6.631064 -15.392263 -13.073479 -0.276724 -4.041468 3.069882 0.118220 0.266820 0.031760 0.192180 7.795498 2.796326 2.794291 7.310523 5.057653 -4.603825 -145.067984 20.467105 -69.410871 2.037457 -2.253114 -0.064610 0.110050 0.066860 0.074190 
-1.042730 17.212880 -5.040450 -6.735349 -14.094317 5.437450 -15.848236 12.859634 4.646204 36.966056 1.749597 -22.174305 -12.379214 15.874130 29.435483 0.562949 9.130653 1.227998 0.042730 0.024300 -0.134880 17.937032 -9.466838 2.054987 -8.860906 5.047818 -26.834314 -1.521094 -4.543410 35.284842 -0.190950 -4.519585 2.650431 0.042890 0.439580 0.339170 -2.129364 -3.485837 -8.363559 3.793518 -1.169918 14.246019 8.215577 -2.103890 -3.612487 4.035817 -6.672073 -8.509983 -12.085095 9.921745 25.006812 -1.936150 7.484130 -3.106690 -12.640461 4.104524 2.408018 -49.337706 7.346870 -7.418622 -20.925346 -12.470346 -0.126449 -4.017305 3.180376 0.043370 0.290410 -0.023770 0.219640 6.143517 4.328689 3.075681 2.699653 2.393066 -6.326693 -145.265765 12.487344 -47.084366 2.115793 -2.474850 -0.049950 0.082740 0.070040 0.130430 
-0.992410 17.201540 -4.996860 -7.421214 -13.782561 6.458700 -15.812066 13.183077 4.394634 35.174098 1.144223 -21.970223 -10.366255 14.439128 28.903222 0.525124 8.637059 1.426486 -0.087890 -0.133720 -0.244990 17.894915 -9.556846 2.149951 -8.334803 5.115455 -26.574754 -1.624927 -4.155963 33.505323 -0.091899 -4.234209 2.790754 -0.061310 0.521160 0.332790 -2.077132 -3.744099 -8.302768 4.539325 -0.643202 14.093441 9.912809 -2.020720 -5.276130 3.985261 -7.579299 -9.678000 -13.777982 8.688300 23.850056 -1.403630 7.339340 -0.269110 -8.706370 4.303234 3.408963 -51.980660 8.557398 -8.429426 -26.589087 -11.110804 -0.161139 -4.019877 3.228312 0.018080 0.326320 -0.087190 0.213230 2.602459 5.154622 3.923029 1.501312 -0.107794 -7.979070 -150.462726 4.720864 -27.222693 2.164546 -2.743042 -0.078450 0.072220 0.131090 0.153370 
-0.924970 17.181610 -4.944330 -8.181703 -13.181235 8.254265 -15.782256 13.378426 4.299355 34.257779 0.575793 -22.227311 -9.162217 13.056505 27.342052 0.510318 8.206704 1.629172 -0.308880 -0.378490 -0.458670 17.877515 -9.561550 2.201979 -8.607148 5.083130 -26.886959 -1.621175 -3.929532 31.167099 0.055628 -3.911153 2.959883 -0.209470 0.688040 0.321600 -2.082606 -4.032339 -8.272199 6.044919 -0.308941 13.498308 11.353788 -2.229427 -7.138398 3.800754 -8.808380 -11.194498 -15.990210 7.590728 21.523500 0.145910 7.260100 3.945500 -2.607743 4.809432 4.963395 -56.471630 9.591387 -9.694070 -33.116672 -9.067371 -0.393402 -4.025644 3.276806 -0.034060 0.401750 -0.200760 0.208610 -2.607376 5.628380 4.910452 1.785288 -4.423502 -11.399478 -154.254930 -3.309518 3.074066 2.361493 -3.048918 -0.134660 0.086560 0.254460 0.205050 
-0.846140 17.190470 -4.918950 -7.881840 -11.788141 7.735604 -15.704273 13.478651 4.173456 33.119831 0.272963 -21.396800 -9.025496 12.291713 26.116742 0.527151 7.863182 1.756656 -0.324610 -0.410040 -0.489240 17.879097 -9.821005 2.088578 -11.081989 4.147109 -24.964127 0.907142 -4.711603 28.491909 0.100532 -3.798272 3.003419 -0.250010 0.683000 0.307810 -2.183925 -3.835227 -8.150781 6.853056 0.827601 12.786518 10.279342 -1.915409 -5.126654 4.058835 -8.776564 -12.192929 -16.025529 5.381459 21.664899 1.862790 4.815980 4.987260 -1.660226 1.934295 6.027289 -53.157733 9.038815 -9.897873 -41.820272 -10.497637 0.134264 -3.896257 3.440039 -0.045120 0.368410 -0.211820 0.217630 -3.879113 8.188931 5.931232 -1.833929 -11.990011 -13.874044 -154.199740 -10.316995 27.050871 2.662530 -3.114074 -0.113370 0.062770 0.248980 0.230990 
-0.771580 17.210240 -4.885740 -7.844097 -10.793345 7.937082 -15.649608 13.532077 4.065999 32.233198 0.034662 -20.742393 -8.878551 11.490799 24.512118 0.498586 7.522208 1.887514 -0.343660 -0.435790 -0.507000 17.882297 -9.988271 2.017964 -12.429679 3.397210 -23.181716 2.301653 -4.874741 24.936389 0.141096 -3.547892 3.108270 -0.275370 0.691100 0.302180 -2.264801 -3.693506 -8.023166 7.758907 1.411055 12.034404 9.362250 -1.880378 -3.798415 4.601789 -8.520565 -12.738330 -15.203771 4.129695 20.408021 2.481990 4.319480 4.727070 0.287373 1.095897 6.608111 -51.472302 9.209760 -10.536388 -49.577424 -10.882243 0.293745 -3.818238 3.516040 -0.032850 0.359670 -0.212270 0.223590 -6.784075 8.706901 6.425717 -2.837271 -17.209482 -15.446004 -156.411038 -17.068844 50.991399 2.908233 -3.086262 -0.118420 0.064920 0.250870 0.237400 
-0.694040 17.244100 -4.848420 -8.130930 -10.388524 8.423712 -15.637864 13.490545 4.084712 32.123389 -0.029300 -20.116432 -9.697255 11.190684 22.848877 0.555442 7.389641 1.949613 -0.411920 -0.510990 -0.555550 17.872164 -10.014964 1.989158 -13.206442 2.878593 -21.422063 3.588094 -4.806151 20.773169 0.189824 -3.274452 3.232318 -0.345220 0.703270 0.304540 -2.277539 -3.617093 -8.007904 8.702612 1.632665 11.424855 8.969451 -2.066548 -3.202777 5.385482 -8.079518 -13.483919 -14.060074 3.339096 19.401156 2.846960 4.311820 5.821830 3.439928 1.351095 7.402139 -52.515496 10.640942 -12.092709 -55.966221 -10.808740 0.126194 -3.741702 3.572166 -0.044010 0.361330 -0.219250 0.216040 -11.363673 8.246689 6.912155 -1.976886 -19.667600 -16.612445 -159.550703 -22.547243 72.117963 3.120454 -3.002265 -0.110850 0.035780 0.267500 0.253630 
-0.609210 17.290970 -4.792850 -8.677541 -10.738817 9.679967 -15.647188 13.466233 4.091016 31.807843 -0.114177 -19.314397 -10.514088 10.676141 20.315098 0.631725 7.162059 2.057026 -0.510110 -0.624320 -0.636870 17.845474 -9.952262 2.040081 -13.202090 2.618875 -20.309911 4.057288 -4.347494 16.249542 0.252523 -2.959645 3.382551 -0.442310 0.736500 0.307240 -2.227823 -3.666901 -8.018738 9.295219 1.739227 10.736146 9.196694 -2.141918 -3.854209 6.154304 -7.651913 -14.118156 -12.795006 2.502677 17.808401 3.819680 3.643370 7.768650 8.527543 3.621936 8.348258 -56.834418 12.869187 -14.184625 -60.158627 -10.319148 -0.122982 -3.635725 3.617747 -0.073360 0.368960 -0.247510 0.211100 -17.683938 5.999012 7.036177 1.553451 -21.714643 -18.151331 -163.008076 -27.893768 93.025232 3.325314 -2.855325 -0.102050 -0.006590 0.295020 0.285120 
